<svg xmlns="http://www.w3.org/2000/svg" width="500" zoomAndPan="magnify"
     viewBox="0 0 375 129.750003" height="173" preserveAspectRatio="xMidYMid meet" version="1.2">
    <defs>
        <clipPath id="1a46e61304">
            <path d="M 0.359375 0 L 374.269531 0 L 374.269531 129.1875 L 0.359375 129.1875 Z M 0.359375 0 "/>
        </clipPath>
        <clipPath id="b381086dbd">
            <path d="M 13.046875 12.152344 L 235 12.152344 L 235 117.164062 L 13.046875 117.164062 Z M 13.046875 12.152344 "/>
        </clipPath>
    </defs>
    <g id="dc952c73b2">
        <g clip-rule="nonzero" clip-path="url(#1a46e61304)">
            <path style="fill:none;stroke-width:3.337534;stroke-linecap:butt;stroke-linejoin:miter;stroke:#000000;stroke-opacity:1;stroke-miterlimit:4;"
                  d="M -0.000890807 -0.000200293 L 278.124325 -0.000200293 L 278.124325 96.093208 L -0.000890807 96.093208 Z M -0.000890807 -0.000200293 "
                  transform="matrix(1.344395,0,0,1.344395,0.360573,0.000269273)"/>
        </g>
        <g clip-rule="nonzero" clip-path="url(#b381086dbd)">
            <path style=" stroke:none;fill-rule:nonzero;fill:#000000;fill-opacity:1;"
                  d="M 13.046875 12.152344 L 234.964844 12.152344 L 234.964844 117.164062 L 13.046875 117.164062 Z M 13.046875 12.152344 "/>
        </g>
        <g style="fill:#ffffff;fill-opacity:1;">
            <g transform="translate(32.034324, 79.672455)">
                <path style="stroke:none"
                      d="M 59.296875 0 L 44.28125 0 L 40.96875 -5.78125 L 18.703125 -5.78125 L 15.375 0 L 0.375 0 L 22.953125 -35.28125 L 36.703125 -35.28125 Z M 35.96875 -14.515625 L 29.84375 -25.21875 L 23.6875 -14.515625 Z M 35.96875 -14.515625 "/>
            </g>
        </g>
        <g style="fill:#ffffff;fill-opacity:1;">
            <g transform="translate(95.518718, 79.672455)">
                <path style="stroke:none"
                      d="M 56.328125 0 L 38.703125 0 L 18.75 -23.890625 L 18.75 0 L 3.9375 0 L 3.9375 -35.3125 L 21.546875 -35.3125 L 41.515625 -11.546875 L 41.515625 -35.3125 L 56.328125 -35.3125 Z M 56.328125 0 "/>
            </g>
        </g>
        <g style="fill:#ffffff;fill-opacity:1;">
            <g transform="translate(159.593503, 79.672455)">
                <path style="stroke:none"
                      d="M 27.5625 0 L 3.9375 0 L 3.9375 -35.3125 L 27.5625 -35.3125 C 37.21875 -35.3125 44.160156 -33.957031 48.390625 -31.25 C 51.804688 -29.0625 53.753906 -26.09375 54.234375 -22.34375 C 54.441406 -20.71875 54.546875 -19.148438 54.546875 -17.640625 C 54.546875 -16.148438 54.441406 -14.585938 54.234375 -12.953125 C 54.035156 -11.316406 53.492188 -9.734375 52.609375 -8.203125 C 51.722656 -6.671875 50.316406 -5.289062 48.390625 -4.0625 C 46.460938 -2.832031 43.820312 -1.847656 40.46875 -1.109375 C 37.113281 -0.367188 32.8125 0 27.5625 0 Z M 26.15625 -8.734375 C 33.6875 -8.734375 37.941406 -10.632812 38.921875 -14.4375 C 39.179688 -15.507812 39.3125 -16.578125 39.3125 -17.640625 C 39.3125 -18.722656 39.175781 -19.789062 38.90625 -20.84375 C 38.632812 -21.90625 38.0625 -22.863281 37.1875 -23.71875 C 36.3125 -24.582031 34.992188 -25.273438 33.234375 -25.796875 C 31.484375 -26.316406 29.125 -26.578125 26.15625 -26.578125 L 18.75 -26.578125 L 18.75 -8.734375 Z M 26.15625 -8.734375 "/>
            </g>
        </g>
        <g style="fill:#000000;fill-opacity:1;">
            <g transform="translate(258.217699, 79.672455)">
                <path style="stroke:none"
                      d="M 43.484375 0 L 1.96875 0 L 1.96875 -8.734375 C 1.96875 -10.796875 2.566406 -12.492188 3.765625 -13.828125 C 4.960938 -15.171875 6.507812 -16.253906 8.40625 -17.078125 C 10.300781 -17.910156 12.335938 -18.570312 14.515625 -19.0625 C 16.703125 -19.5625 18.8125 -19.972656 20.84375 -20.296875 C 23.53125 -20.722656 25.671875 -21.195312 27.265625 -21.71875 C 28.472656 -22.113281 29.078125 -22.664062 29.078125 -23.375 C 29.078125 -23.582031 29.019531 -23.8125 28.90625 -24.0625 C 27.78125 -25.738281 25.925781 -26.578125 23.34375 -26.578125 C 20.800781 -26.578125 18.953125 -25.738281 17.796875 -24.0625 L 2.0625 -24.0625 C 2.59375 -26.40625 3.617188 -28.472656 5.140625 -30.265625 C 6.671875 -32.066406 8.894531 -33.476562 11.8125 -34.5 C 14.726562 -35.53125 18.570312 -36.046875 23.34375 -36.046875 C 28.125 -36.046875 31.972656 -35.53125 34.890625 -34.5 C 37.804688 -33.476562 40.023438 -32.066406 41.546875 -30.265625 C 43.078125 -28.472656 44.109375 -26.40625 44.640625 -24.0625 C 44.710938 -23.507812 44.75 -22.984375 44.75 -22.484375 C 44.75 -20.128906 43.847656 -18.175781 42.046875 -16.625 C 40.242188 -15.082031 37.796875 -13.921875 34.703125 -13.140625 C 31.609375 -12.367188 28.585938 -11.78125 25.640625 -11.375 C 24.148438 -11.15625 22.804688 -10.925781 21.609375 -10.6875 C 20.410156 -10.445312 19.457031 -10.175781 18.75 -9.875 C 18.039062 -9.570312 17.6875 -9.191406 17.6875 -8.734375 L 43.484375 -8.734375 Z M 43.484375 0 "/>
            </g>
        </g>
        <g style="fill:#000000;fill-opacity:1;">
            <g transform="translate(304.932304, 79.672455)">
                <path style="stroke:none"
                      d="M 23.25 0.765625 C 18.394531 0.765625 14.457031 0.3125 11.4375 -0.59375 C 8.414062 -1.507812 6.148438 -2.738281 4.640625 -4.28125 C 3.140625 -5.820312 2.25 -7.578125 1.96875 -9.546875 L 16.828125 -9.546875 C 17.316406 -7.253906 19.457031 -6.109375 23.25 -6.109375 C 25.269531 -6.109375 26.742188 -6.382812 27.671875 -6.9375 C 28.597656 -7.5 29.1875 -8.171875 29.4375 -8.953125 C 29.695312 -9.742188 29.828125 -10.488281 29.828125 -11.1875 C 29.828125 -11.894531 29.695312 -12.644531 29.4375 -13.4375 C 29.1875 -14.238281 28.597656 -14.914062 27.671875 -15.46875 C 26.742188 -16.03125 25.269531 -16.3125 23.25 -16.3125 C 21.726562 -16.3125 20.523438 -16.140625 19.640625 -15.796875 C 18.753906 -15.460938 18.09375 -15.035156 17.65625 -14.515625 C 17.21875 -14.003906 16.941406 -13.457031 16.828125 -12.875 L 1.96875 -12.875 C 2.03125 -13.34375 2.132812 -13.800781 2.28125 -14.25 L 7.09375 -35.28125 L 41.53125 -35.28125 L 41.53125 -26.546875 L 16.484375 -26.546875 L 15.84375 -22.6875 C 18.007812 -23 20.476562 -23.15625 23.25 -23.15625 C 28.550781 -23.15625 32.765625 -22.617188 35.890625 -21.546875 C 39.015625 -20.472656 41.253906 -19.03125 42.609375 -17.21875 C 43.960938 -15.414062 44.640625 -13.40625 44.640625 -11.1875 C 44.640625 -8.988281 43.960938 -6.984375 42.609375 -5.171875 C 41.253906 -3.359375 39.015625 -1.914062 35.890625 -0.84375 C 32.765625 0.226562 28.550781 0.765625 23.25 0.765625 Z M 23.25 0.765625 "/>
            </g>
        </g>
    </g>
</svg>